<svg id="Capa_1" enable-background="new 0 0 512 512" height="512" viewBox="0 0 512 512" width="512" xmlns="http://www.w3.org/2000/svg"><g><path d="m196 359.136h286v92.864h-286z" fill="#3ea85c"/><path d="m30 359.136h226v92.864h-226z" fill="#3dcc4e"/><path d="m196 150h286v90h-286z" fill="#ff3a33"/><path d="m30 150h226v90h-226z" fill="#fe5e49"/><path d="m512 165c0-90.981-74.019-165-165-165h-91l-60 90 60 90h256z" fill="#fe7f48"/><path d="m437 512c41.355 0 75-33.645 75-75v-15h-256l-45 45 45 45z" fill="#fe7f48"/><path d="m165 0c-90.981 0-165 74.019-165 165v15h256v-180z" fill="#fda147"/><path d="m0 437c0 41.355 33.645 75 75 75h181v-90h-256z" fill="#fda147"/><path d="m482 210h-226l-30 30 30 30h226c16.569 0 30-13.431 30-30s-13.431-30-30-30z" fill="#fdc245"/><path d="m30 210c-16.569 0-30 13.431-30 30s13.431 30 30 30h226v-60z" fill="#fce444"/><path d="m61 270c-33.636 0-61 27.364-61 61s27.364 61 61 61h195v-122z" fill="#8b3247"/><path d="m451 270h-195v122h195c33.636 0 61-27.364 61-61s-27.364-61-61-61z" fill="#752a32"/><path d="m271 92h-15l-7.5 15 7.5 15h15z" fill="#ffd4a1"/><path d="m241 92h15v30h-15z" fill="#fffbbe"/><path d="m181 60h30v30h-30z" fill="#fffbbe"/><path d="m301 60h30v30h-30z" fill="#ffd4a1"/><path d="m256 227-15 97.5 15 97.5c16.569 0 30-13.431 30-30v-165z" fill="#fdc245"/><path d="m226 227v165c0 16.569 13.431 30 30 30v-195z" fill="#fce444"/></g></svg>