<svg viewBox="0 0 301 16" style="color: hsl(14 100% 52%); height: 200px" fill="none" xmlns="http://www.w3.org/2000/svg"><path d="M66.3411 0.498248H60.1895V15.5329H80.6796V11.0673H66.3345V0.498248H66.3411ZM83.7587 15.5329H89.9103V0.498248H83.7587V15.5329ZM114.817 7.82873C114.054 7.49864 113.055 7.25574 111.829 7.08758C110.603 6.91943 109.109 6.83846 107.354 6.83846C105.762 6.83846 104.451 6.81978 103.42 6.78864C102.39 6.75749 101.587 6.70144 101.02 6.61425C100.452 6.52705 100.054 6.41495 99.8259 6.2717C99.5976 6.12846 99.4802 5.94161 99.4802 5.71117C99.4802 5.25652 99.8977 4.93266 100.72 4.74582C101.548 4.55897 102.814 4.46555 104.523 4.46555C106.232 4.46555 107.576 4.60257 108.509 4.87661C109.441 5.15064 109.95 5.54924 110.035 6.05995H116.408C116.408 4.10432 115.41 2.60335 113.421 1.56325C111.431 0.52316 108.548 0 104.771 0C102.194 0 100.048 0.193071 98.3386 0.572986C96.6229 0.959128 95.3443 1.53834 94.5028 2.31063C93.6613 3.08914 93.2372 4.06695 93.2372 5.25652C93.2372 5.94784 93.4199 6.53951 93.7787 7.03153C94.1375 7.52355 94.6985 7.93461 95.4617 8.25224C96.225 8.5761 97.1969 8.80654 98.3907 8.95602C99.578 9.10549 100.994 9.18023 102.638 9.18023C104.836 9.18023 106.539 9.21137 107.752 9.27365C108.965 9.33593 109.807 9.44803 110.283 9.61619C110.759 9.78435 110.994 10.0086 110.994 10.3075C110.994 10.6189 110.844 10.868 110.55 11.0487C110.257 11.2293 109.748 11.3538 109.037 11.4223C108.326 11.4909 107.354 11.5282 106.121 11.5282C104.888 11.5282 103.779 11.4722 102.84 11.3538C101.9 11.2355 101.144 11.0611 100.589 10.8369C100.028 10.6127 99.6954 10.3324 99.578 10.0023H92.8589C92.8589 10.7559 93.0415 11.441 93.4134 12.0576C93.7852 12.6742 94.3201 13.2347 95.0247 13.7267C95.7292 14.2188 96.5903 14.636 97.6079 14.9724C98.6256 15.3087 99.7868 15.564 101.091 15.7384C102.396 15.9128 103.825 15.9938 105.384 15.9938C108.137 15.9938 110.368 15.8132 112.077 15.4519C113.78 15.0907 115.032 14.5364 115.815 13.7828C116.604 13.0292 116.996 12.0576 116.996 10.868C116.996 10.1767 116.826 9.57883 116.48 9.06812C116.135 8.55742 115.58 8.14013 114.817 7.81004V7.82873ZM118.718 4.9638H128.438V15.5329H134.589V4.9638H144.309V0.498248H118.724V4.9638H118.718ZM40.73 0.498248L30.1751 15.5329H36.9399L38.473 13.2534H49.9085L51.4546 15.5329H58.2194L47.5666 0.498248H40.73ZM40.841 9.7283L44.1679 4.78318L47.521 9.7283H40.841ZM10.7157 4.85792C12.0269 4.61503 13.7361 4.49046 15.8301 4.49046C17.6175 4.49046 19.0331 4.60257 20.0834 4.82055C21.1337 5.03854 21.923 5.34371 22.4449 5.72363C22.9667 6.10977 23.332 6.55197 23.5277 7.05021H29.9272C29.8424 5.54924 29.2814 4.27248 28.2311 3.21993C27.1809 2.16738 25.6283 1.37641 23.5799 0.834566C21.5316 0.292721 18.9483 0.0249118 15.8301 0.0249118C13.449 0.0249118 11.3224 0.155703 9.43059 0.423511C7.54532 0.69132 5.93402 1.13352 4.60976 1.7501C3.27898 2.36668 2.26133 3.20125 1.55679 4.24134C0.852263 5.28143 0.5 6.57688 0.5 8.12768C0.5 9.67847 0.852263 10.9615 1.55679 11.9766C2.26133 12.9981 3.27898 13.7953 4.60976 14.3869C5.94054 14.9724 7.54532 15.3896 9.43059 15.6325C11.3159 15.8754 13.449 16 15.8301 16C18.9483 16 21.525 15.7509 23.5669 15.2464C25.6087 14.7419 27.1548 13.9946 28.2051 12.9918C29.2553 11.9891 29.8229 10.7435 29.9011 9.25496H23.5082C23.3125 9.65979 22.9471 10.0397 22.4253 10.3947C21.8969 10.7497 21.1141 11.0237 20.0768 11.2293C19.0331 11.4348 17.6175 11.5345 15.8301 11.5345C13.7295 11.5345 12.0269 11.4161 10.7157 11.1794C9.40452 10.9428 8.44555 10.5753 7.83887 10.0771C7.23219 9.5726 6.92561 8.92487 6.92561 8.12768C6.92561 7.24951 7.23219 6.54574 7.83887 6.01635C8.44555 5.48696 9.40452 5.09459 10.7157 4.85169V4.85792ZM268.959 1.62554C268.157 1.20202 267.217 0.909304 266.141 0.747373C265.065 0.585442 263.916 0.498248 262.684 0.498248H245.612V15.5329H251.763V11.659H262.684C263.916 11.659 265.065 11.603 266.141 11.4971C267.217 11.3912 268.157 11.1608 268.959 10.8182C269.761 10.4757 270.394 9.94628 270.851 9.24251C271.308 8.53873 271.542 7.58583 271.542 6.37758C271.542 5.16933 271.314 4.18529 270.851 3.41923C270.394 2.65317 269.761 2.05527 268.959 1.63176V1.62554ZM264.888 7.32425C264.549 7.47372 264.138 7.54846 263.649 7.54846H251.77V5.20047H263.649C264.138 5.20047 264.556 5.26898 264.888 5.41222C265.221 5.55547 265.391 5.8731 265.391 6.37758C265.391 6.88205 265.221 7.18101 264.888 7.33048V7.32425ZM226.205 0.498248L215.65 15.5329H222.414L223.947 13.2534H235.383L236.929 15.5329H243.694L233.041 0.498248H226.205ZM226.315 9.7283L229.642 4.78318L232.995 9.7283H226.315ZM152.914 9.18645H168.165V6.83846H152.914V4.95757H171.564V0.49202H146.762V15.5267H171.61V11.0611H152.914V9.18023V9.18645ZM299.808 3.40677C299.352 2.64072 298.719 2.04282 297.917 1.61931C297.114 1.1958 296.175 0.903074 295.099 0.741144C294.022 0.579213 292.874 0.49202 291.641 0.49202H274.569V15.5267H280.721V11.6528H291.641C292.874 11.6528 294.022 11.5967 295.099 11.4909C296.175 11.385 297.114 11.1545 297.917 10.812C298.719 10.4694 299.352 9.94005 299.808 9.23628C300.265 8.5325 300.5 7.5796 300.5 6.37135C300.5 5.1631 300.272 4.17906 299.808 3.413V3.40677ZM293.84 7.31802C293.5 7.4675 293.089 7.54224 292.6 7.54224H280.721V5.19424H292.6C293.089 5.19424 293.507 5.26275 293.84 5.406C294.172 5.54924 294.342 5.86687 294.342 6.37135C294.342 6.87583 294.172 7.17478 293.84 7.32425V7.31802ZM197.195 9.63488L180.958 0.49202H174.806V15.5267H180.958V6.55197L197.195 15.5267H203.346V0.49202H197.195V9.63488ZM207.156 15.5267H213.308V0.49202H207.156V15.5267Z" fill="currentColor"></path></svg>