<svg xmlns="http://www.w3.org/2000/svg" viewBox="0 0 113.39 113.39">
  <defs>
    <style>
      .cls-1 {
        fill: #fff;
      }

      .cls-1, .cls-2 {
        stroke-width: 0px;
      }

      .cls-2 {
        fill: #ff5800;
      }
    </style>
  </defs>
  <path class="cls-2" d="m78.46,68.55c.24-.51.41-1.05.51-1.61.1-.56.14-1.19.14-1.91,0-.59-.03-1.12-.09-1.59-.06-.47-.17-.93-.32-1.38-.16-.45-.36-.83-.62-1.13-.26-.3-.59-.55-1.01-.73-.42-.18-.91-.27-1.46-.27h-4.91v10.23h4.91c.7,0,1.29-.14,1.77-.42.48-.28.84-.67,1.08-1.19Z"/>
  <path class="cls-2" d="m61.55,74.09c-.16-.5-.36-.92-.61-1.26-.25-.34-.59-.61-1.01-.81-.42-.2-.92-.3-1.49-.3h-4.37v12.03h4.37c.56,0,1.04-.12,1.46-.35.42-.23.75-.53,1.01-.91s.46-.85.62-1.41c.15-.57.26-1.15.32-1.73.06-.59.09-1.25.09-1.98,0-.65-.03-1.24-.08-1.75-.05-.51-.16-1.02-.31-1.53Z"/>
  <path class="cls-2" d="m59.53,69.44c.43-.26.76-.63,1-1.09.24-.47.41-.97.51-1.52.11-.55.16-1.15.16-1.8,0-3.47-1.32-5.2-3.95-5.2h-3.18v10.01h3.92c.6,0,1.11-.13,1.54-.39Z"/>
  <path class="cls-2" d="m22.68,0C10.21,0,0,10.2,0,22.68v90.71h90.71c12.47,0,22.68-10.21,22.68-22.68V0H22.68Zm39.16,27.78h11.53v3.84h-5.94v19.95h5.94v3.84h-11.53v-27.62Zm-25.62,0h5.59v27.62h-5.59v-27.62Zm-12.77,27.63l-5.08-27.62h5.29l2.44,16.74,2.7-16.74h5.22l-5.46,27.62h-5.11Zm18.46,30.2h-10.17v-27.64h2.44v25.68h7.73v1.96Zm4.66,0h-2.44v-27.64h2.44v27.64Zm-2.57-57.83h5.3l2.44,16.74,2.7-16.74h5.22l-5.46,27.62h-5.11l-5.08-27.62Zm20.26,52.14c-.09.74-.27,1.48-.55,2.22-.27.74-.63,1.36-1.08,1.84s-1.06.87-1.83,1.17c-.77.3-1.68.45-2.73.45h-6.42v-27.64h5.94c.95,0,1.8.13,2.54.4.74.27,1.34.62,1.8,1.06.46.44.84.97,1.13,1.59.29.62.5,1.25.61,1.9.11.64.17,1.33.17,2.07,0,1.15-.27,2.27-.8,3.36-.53,1.09-1.26,1.85-2.19,2.28.65.27,1.22.66,1.7,1.18.48.52.85,1.1,1.11,1.74.26.64.44,1.28.56,1.92.12.64.18,1.27.18,1.9,0,.96-.05,1.82-.14,2.55Zm15.12,5.69l-4.03-13.49h-4.64v13.49h-2.44v-27.64h7.37c.93,0,1.75.13,2.46.39.71.26,1.28.6,1.71,1.02.43.42.78.95,1.05,1.57.27.63.45,1.27.55,1.94.1.67.15,1.41.15,2.22,0,3.52-1.28,5.76-3.85,6.7l4.27,13.8h-2.6Zm2.01-42.5l-7.49,3.75c-.26.13-.54.19-.82.19-.33,0-.67-.09-.96-.27-.54-.33-.87-.92-.87-1.55v-7.5c0-.63.33-1.22.87-1.55.54-.33,1.21-.36,1.78-.08l7.49,3.75c.62.31,1.01.94,1.01,1.63s-.39,1.33-1.01,1.63Zm13.65,16.82h-7.2v10.47h6.47v1.85h-6.47v11.4h7.2v1.96h-9.64v-27.64h9.64v1.96Z"/>
  <polygon class="cls-1" points="34.17 57.97 31.73 57.97 31.73 85.61 41.9 85.61 41.9 83.65 34.17 83.65 34.17 57.97"/>
  <rect class="cls-1" x="44.12" y="57.96" width="2.44" height="27.64"/>
  <path class="cls-1" d="m63.64,73.54c-.26-.64-.63-1.22-1.11-1.74-.48-.52-1.05-.91-1.7-1.18.93-.43,1.66-1.19,2.19-2.28.53-1.09.8-2.21.8-3.36,0-.74-.06-1.43-.17-2.07-.11-.64-.32-1.27-.61-1.9-.3-.62-.67-1.15-1.13-1.59-.46-.44-1.06-.79-1.8-1.06-.74-.27-1.58-.4-2.54-.4h-5.94v27.64h6.42c1.05,0,1.96-.15,2.73-.45.77-.3,1.38-.69,1.83-1.17s.81-1.09,1.08-1.84c.27-.74.46-1.49.55-2.22.09-.74.14-1.59.14-2.55,0-.63-.06-1.27-.18-1.9-.12-.64-.3-1.28-.56-1.92Zm-9.57-13.72h3.18c2.64,0,3.95,1.73,3.95,5.2,0,.65-.05,1.25-.16,1.8-.11.55-.28,1.05-.51,1.52-.24.47-.57.83-1,1.09-.43.26-.94.39-1.54.39h-3.92v-10.01Zm7.78,19.51c-.06.59-.17,1.17-.32,1.73-.16.57-.36,1.04-.62,1.41s-.59.68-1.01.91c-.42.23-.91.35-1.46.35h-4.37v-12.03h4.37c.57,0,1.06.1,1.49.3.42.2.76.47,1.01.81.25.34.45.76.61,1.26.16.5.26,1.01.31,1.53.05.51.08,1.1.08,1.75,0,.73-.03,1.39-.09,1.98Z"/>
  <path class="cls-1" d="m81.55,65.11c0-.81-.05-1.55-.15-2.22-.1-.67-.29-1.32-.55-1.94-.27-.63-.62-1.15-1.05-1.57-.43-.42-1-.76-1.71-1.02-.71-.26-1.53-.39-2.46-.39h-7.37v27.64h2.44v-13.49h4.64l4.03,13.49h2.6l-4.27-13.8c2.57-.94,3.85-3.17,3.85-6.7Zm-5.94,5.04h-4.91v-10.23h4.91c.56,0,1.04.09,1.46.27.42.18.76.43,1.01.73.26.3.46.68.62,1.13.15.45.26.91.32,1.38.06.47.09,1,.09,1.59,0,.72-.05,1.36-.14,1.91-.1.56-.26,1.09-.51,1.61s-.6.91-1.08,1.19c-.48.28-1.07.42-1.77.42Z"/>
  <polygon class="cls-1" points="85.39 85.61 95.02 85.61 95.02 83.65 87.83 83.65 87.83 72.24 94.29 72.24 94.29 70.4 87.83 70.4 87.83 59.92 95.02 59.92 95.02 57.97 85.39 57.97 85.39 85.61"/>
  <polygon class="cls-1" points="28.8 27.78 26.1 44.52 23.66 27.78 18.36 27.78 23.44 55.41 28.55 55.41 34.02 27.78 28.8 27.78"/>
  <rect class="cls-1" x="36.21" y="27.78" width="5.59" height="27.62"/>
  <polygon class="cls-1" points="59.64 27.78 54.42 27.78 51.72 44.52 49.28 27.78 43.99 27.78 49.07 55.41 54.18 55.41 59.64 27.78"/>
  <polygon class="cls-1" points="73.36 51.57 67.42 51.57 67.42 31.62 73.36 31.62 73.36 27.78 61.83 27.78 61.83 55.41 73.36 55.41 73.36 51.57"/>
  <path class="cls-1" d="m81.37,39.84l-7.49-3.75c-.57-.28-1.24-.25-1.78.08-.54.33-.87.92-.87,1.55v7.5c0,.63.33,1.22.87,1.55.29.18.63.27.96.27.28,0,.56-.06.82-.19l7.49-3.75c.62-.31,1.01-.94,1.01-1.63s-.39-1.32-1.01-1.63Z"/>
</svg>