<?xml version="1.0" encoding="UTF-8" standalone="no"?>
<svg
   xmlns:dc="http://purl.org/dc/elements/1.1/"
   xmlns:cc="http://creativecommons.org/ns#"
   xmlns:rdf="http://www.w3.org/1999/02/22-rdf-syntax-ns#"
   xmlns:svg="http://www.w3.org/2000/svg"
   xmlns="http://www.w3.org/2000/svg"
   xmlns:sodipodi="http://sodipodi.sourceforge.net/DTD/sodipodi-0.dtd"
   xmlns:inkscape="http://www.inkscape.org/namespaces/inkscape"
   viewBox="0.29136863 -41.138269 145.09804 118.60802"
   width="1588.6483"
   height="1587.8934"
   version="1.1"
   id="svg19"
   sodipodi:docname="atlassian.svg"
   inkscape:version="1.0.2 (e86c8708, 2021-01-15)">
  <metadata
     id="metadata25">
    <rdf:RDF>
      <cc:Work
         rdf:about="">
        <dc:format>image/svg+xml</dc:format>
        <dc:type
           rdf:resource="http://purl.org/dc/dcmitype/StillImage" />
      </cc:Work>
    </rdf:RDF>
  </metadata>
  <defs
     id="defs23" />
  <sodipodi:namedview
     pagecolor="#ffffff"
     bordercolor="#666666"
     borderopacity="1"
     objecttolerance="10"
     gridtolerance="10"
     guidetolerance="10"
     inkscape:pageopacity="0"
     inkscape:pageshadow="2"
     inkscape:window-width="1792"
     inkscape:window-height="1018"
     id="namedview21"
     showgrid="false"
     inkscape:zoom="0.294"
     inkscape:cx="253.95085"
     inkscape:cy="572.16734"
     inkscape:window-x="0"
     inkscape:window-y="25"
     inkscape:window-maximized="1"
     inkscape:current-layer="svg19" />
  <linearGradient
     id="a"
     gradientTransform="matrix(1,0,0,-1,0.60005642,171.99321)"
     gradientUnits="userSpaceOnUse"
     x1="62.57"
     x2="25.030001"
     y1="150.13"
     y2="85.110001">
    <stop
       offset="0"
       stop-color="#0052cc"
       id="stop10" />
    <stop
       offset=".92"
       stop-color="#2684ff"
       id="stop12" />
  </linearGradient>
  <g
     id="g29"
     transform="translate(-0.31066077,1.6857487)">
    <path
       d="m 43.600057,10.993203 a 4.14,4.14 0 0 0 -5.79,-0.78 4.29,4.29 0 0 0 -1.21,1.51 l -35.5500006,71.12 a 4.25,4.25 0 0 0 1.9,5.7 4.18,4.18 0 0 0 1.9,0.45 H 54.380057 a 4.08,4.08 0 0 0 3.8,-2.35 c 10.69,-22.08 4.21,-55.65 -14.58,-75.65 z"
       fill="url(#a)"
       id="path15"
       style="fill:url(#a)" />
    <path
       d="m 69.730057,-53.726797 a 93.82,93.82 0 0 0 -5.48,92.61 l 23.88,47.76 a 4.25,4.25 0 0 0 3.8,2.35 h 49.520003 a 4.24,4.24 0 0 0 4.25,-4.25 4.31,4.31 0 0 0 -0.44,-1.9 l -68.300003,-136.59 a 4,4 0 0 0 -7.23,0 z"
       fill="#2684ff"
       id="path17" />
  </g>
</svg>
