<?xml version="1.0" encoding="UTF-8" standalone="no"?>
<svg
   xmlns:dc="http://purl.org/dc/elements/1.1/"
   xmlns:cc="http://creativecommons.org/ns#"
   xmlns:rdf="http://www.w3.org/1999/02/22-rdf-syntax-ns#"
   xmlns:svg="http://www.w3.org/2000/svg"
   xmlns="http://www.w3.org/2000/svg"
   xmlns:sodipodi="http://sodipodi.sourceforge.net/DTD/sodipodi-0.dtd"
   xmlns:inkscape="http://www.inkscape.org/namespaces/inkscape"
   width="28.714001"
   height="30.000347"
   viewBox="0 0 28.714001 30.000347"
   fill="none"
   version="1.1"
   id="svg16"
   sodipodi:docname="notion.svg"
   inkscape:version="1.0.2 (e86c8708, 2021-01-15)">
  <metadata
     id="metadata22">
    <rdf:RDF>
      <cc:Work
         rdf:about="">
        <dc:format>image/svg+xml</dc:format>
        <dc:type
           rdf:resource="http://purl.org/dc/dcmitype/StillImage" />
      </cc:Work>
    </rdf:RDF>
  </metadata>
  <defs
     id="defs20" />
  <sodipodi:namedview
     pagecolor="#ffffff"
     bordercolor="#666666"
     borderopacity="1"
     objecttolerance="10"
     gridtolerance="10"
     guidetolerance="10"
     inkscape:pageopacity="0"
     inkscape:pageshadow="2"
     inkscape:window-width="1792"
     inkscape:window-height="1017"
     id="namedview18"
     showgrid="false"
     inkscape:zoom="8.9195402"
     inkscape:cx="43.5"
     inkscape:cy="15.000201"
     inkscape:window-x="0"
     inkscape:window-y="25"
     inkscape:window-maximized="0"
     inkscape:current-layer="svg16" />
  <path
     d="m 1.805,1.2942012 16.6,-1.22600002 c 2.039,-0.175 2.563,-0.057 3.845,0.875 l 5.299,3.73300002 c 0.874,0.642 1.165,0.817 1.165,1.516 V 26.665201 c 0,1.283 -0.466,2.042 -2.097,2.158 l -19.277,1.167 c -1.224,0.058 -1.807,-0.117 -2.448,-0.934 l -3.902,-5.074 c -0.7,-0.934 -0.99,-1.633 -0.99,-2.45 V 3.3342012 c 0,-1.049 0.466,-1.924 1.805,-2.04 z"
     fill="#ffffff"
     id="path10" />
  <path
     fill-rule="evenodd"
     clip-rule="evenodd"
     d="M 18.405,0.06820118 1.805,1.2942012 c -1.339,0.116 -1.805,0.991 -1.805,2.04 V 21.532201 c 0,0.817 0.29,1.516 0.99,2.45 l 3.902,5.074 c 0.641,0.817 1.224,0.992 2.448,0.934 l 19.277,-1.167 c 1.63,-0.116 2.097,-0.875 2.097,-2.158 V 6.1922012 c 0,-0.663 -0.262,-0.854 -1.033,-1.42 a 85.473,85.473 0 0 1 -0.133,-0.096 L 22.25,0.94320118 c -1.282,-0.932 -1.806,-1.05 -3.845,-0.875 z M 7.776,5.8572012 c -1.574,0.106 -1.931,0.13 -2.825,-0.597 l -2.273,-1.808 c -0.231,-0.234 -0.115,-0.526 0.467,-0.584 l 15.958,-1.166 c 1.34,-0.117 2.038,0.35 2.562,0.758 l 2.737,1.983 c 0.117,0.059 0.408,0.408 0.058,0.408 l -16.48,0.992 z M 5.941,26.490201 V 9.1102012 c 0,-0.759 0.233,-1.109 0.931,-1.168 l 18.928,-1.108 c 0.642,-0.058 0.932,0.35 0.932,1.108 V 25.206201 c 0,0.759 -0.117,1.401 -1.165,1.459 l -18.113,1.05 c -1.048,0.058 -1.513,-0.291 -1.513,-1.225 z m 17.88,-16.448 c 0.116,0.525 0,1.05 -0.525,1.11 l -0.873,0.173 v 12.832 c -0.758,0.408 -1.456,0.641 -2.039,0.641 -0.932,0 -1.165,-0.292 -1.863,-1.166 l -5.709,-8.982 v 8.69 l 1.806,0.409 c 0,0 0,1.05 -1.457,1.05 l -4.017,0.233 c -0.117,-0.234 0,-0.817 0.407,-0.933 l 1.049,-0.291 v -11.49 l -1.456,-0.118 c -0.117,-0.525 0.174,-1.283 0.99,-1.342 l 4.31,-0.29 5.94,9.098 v -8.049 l -1.514,-0.174 c -0.117,-0.643 0.349,-1.11 0.931,-1.167 z"
     fill="#000000"
     id="path12" />
</svg>
